<?xml version="1.0" standalone="no"?>
<!DOCTYPE svg PUBLIC "-//W3C//DTD SVG 20010904//EN"
 "http://www.w3.org/TR/2001/REC-SVG-20010904/DTD/svg10.dtd">
<svg version="1.0" xmlns="http://www.w3.org/2000/svg"
 width="400.000000pt" height="400.000000pt" viewBox="0 0 400.000000 400.000000"
 preserveAspectRatio="xMidYMid meet">
<metadata>
Created by potrace 1.11, written by Peter Selinger 2001-2013
</metadata>
<g transform="translate(0.000000,400.000000) scale(0.100000,-0.100000)"
fill="#000000" stroke="none">
<path d="M1369 3933 l-72 -68 6 35 c3 19 9 43 13 54 6 15 0 14 -37 -9 -198
-125 -318 -272 -417 -515 -10 -24 -11 -24 -11 9 l-1 34 -40 -57 c-95 -135
-139 -262 -140 -398 0 -119 42 -364 75 -442 8 -18 6 -18 -23 3 l-32 22 6 -58
c6 -55 5 -59 -19 -72 -31 -16 -57 -67 -57 -108 0 -40 24 -117 64 -204 18 -41
41 -97 50 -126 9 -28 36 -80 58 -115 22 -35 51 -93 63 -129 33 -97 52 -128 90
-146 27 -13 42 -14 69 -6 l34 10 22 -85 c45 -168 119 -282 316 -482 79 -80 94
-100 94 -127 0 -18 6 -67 13 -110 l12 -78 5 88 5 87 55 -45 c118 -98 257 -145
430 -145 173 0 312 47 430 145 l55 45 3 -102 c1 -57 6 -106 11 -111 4 -4 11
52 15 125 l6 133 94 95 c197 200 271 314 316 483 20 77 25 85 41 77 46 -25
109 3 133 59 9 20 26 65 40 101 13 36 39 88 59 117 19 29 43 74 53 100 9 26
37 95 62 153 57 135 66 217 30 270 -15 22 -36 38 -58 44 -19 5 -36 10 -38 11
-1 1 2 15 8 31 l10 29 -24 -27 c-30 -34 -44 -37 -23 -5 27 42 66 166 79 251
15 106 1 236 -40 381 -26 89 -30 96 -37 70 -6 -27 -8 -28 -15 -10 -4 11 -16
56 -25 100 -20 90 -72 220 -104 261 l-21 27 0 -42 c0 -44 -14 -55 -26 -18 -19
62 -96 170 -187 261 -54 54 -100 96 -103 94 -2 -3 0 -17 5 -31 10 -25 6 -23
-42 16 -75 61 -148 102 -156 88 -5 -8 -13 -5 -26 9 -18 19 -29 20 -453 20
l-434 0 -39 -31 -39 -31 0 31 c0 41 -13 39 -56 -9 -20 -22 -39 -39 -41 -36 -3
2 0 20 5 40 9 32 8 36 -9 36 -10 0 -51 -30 -90 -67z m291 -628 c168 -51 499
-53 665 -5 95 27 198 39 272 30 109 -13 233 -115 302 -248 29 -55 53 -184 61
-322 6 -109 13 -159 29 -200 24 -62 29 -190 11 -295 -11 -67 -13 -165 -4 -189
5 -12 10 -13 26 -5 11 6 21 9 23 7 2 -2 -16 -70 -41 -152 -24 -82 -60 -210
-79 -285 -61 -237 -101 -303 -322 -534 -176 -183 -229 -227 -324 -271 -95 -44
-157 -56 -279 -56 -122 0 -184 12 -279 56 -95 44 -148 88 -324 271 -213 223
-264 304 -311 498 -14 55 -50 185 -81 288 l-55 189 20 28 c34 48 43 117 29
227 -15 126 -13 172 12 228 14 33 22 82 29 182 10 142 36 267 70 338 40 82
201 227 274 246 52 14 187 1 276 -26z m1652 -864 c30 -27 33 -34 32 -88 0 -46
-10 -82 -51 -178 -28 -66 -56 -136 -62 -155 -6 -19 -29 -62 -51 -95 -22 -33
-52 -95 -66 -138 -32 -96 -57 -128 -102 -129 -18 -1 -37 3 -43 9 -15 15 106
429 142 480 16 23 52 101 80 175 28 73 53 136 56 141 9 14 33 6 65 -22z
m-2589 -28 c8 -27 31 -76 51 -110 57 -97 69 -139 56 -194 -14 -56 -2 -85 56
-139 21 -19 33 -28 27 -20 -6 8 -13 42 -15 76 -3 40 -13 78 -32 113 -15 29
-26 55 -23 57 2 2 16 -10 32 -26 31 -33 42 -62 111 -305 25 -88 47 -168 50
-177 4 -13 -3 -21 -21 -28 -35 -13 -89 12 -104 48 -6 15 -21 57 -35 93 -13 37
-43 96 -65 132 -23 36 -52 96 -66 133 -13 38 -40 107 -59 154 -43 102 -48 172
-15 214 11 14 24 26 29 26 5 0 16 -21 23 -47z"/>
<path d="M1261 2655 c-72 -20 -142 -60 -183 -102 l-33 -35 50 25 c114 56 189
58 452 12 78 -14 182 -27 230 -28 87 -2 87 -2 97 26 8 23 6 31 -11 48 -48 48
-484 87 -602 54z"/>
<path d="M2450 2664 c-167 -24 -296 -50 -313 -64 -15 -12 -18 -23 -13 -43 12
-50 73 -52 312 -6 130 26 196 33 289 33 113 1 123 -1 175 -28 l55 -28 -28 30
c-39 41 -112 79 -188 97 -58 13 -221 18 -289 9z"/>
<path d="M1428 2483 c12 -2 32 -2 45 0 12 2 2 4 -23 4 -25 0 -35 -2 -22 -4z"/>
<path d="M2518 2483 c7 -3 16 -2 19 1 4 3 -2 6 -13 5 -11 0 -14 -3 -6 -6z"/>
<path d="M1518 2473 c7 -3 16 -2 19 1 4 3 -2 6 -13 5 -11 0 -14 -3 -6 -6z"/>
<path d="M1282 2451 c-43 -11 -82 -48 -82 -78 0 -68 75 -151 156 -173 56 -16
220 -8 284 14 25 9 34 14 20 11 -14 -2 -45 -7 -70 -11 l-45 -7 29 33 c25 30
28 40 24 87 l-5 52 50 -27 c27 -14 60 -42 73 -62 l24 -35 0 29 c0 43 -79 117
-155 146 -46 18 -84 24 -165 26 -58 2 -120 -1 -138 -5z m122 -49 c-55 -36 -35
-185 24 -181 16 1 16 2 0 6 -20 5 -31 30 -17 39 6 3 16 1 22 -5 7 -7 14 -7 24
1 19 15 36 -3 31 -33 -4 -31 -32 -35 -105 -14 -105 31 -180 134 -120 166 40
22 171 42 141 21z m154 -18 c23 -16 31 -54 11 -54 -6 0 -25 8 -42 18 -18 9
-34 18 -36 19 -2 1 -1 9 2 18 8 19 36 19 65 -1z"/>
<path d="M2437 2441 c-72 -24 -127 -59 -161 -104 -26 -34 -35 -77 -16 -77 6 0
10 6 10 13 0 19 47 65 90 87 22 11 41 20 42 20 2 0 2 -24 0 -53 -3 -42 1 -58
18 -80 12 -15 29 -26 38 -26 16 1 16 2 0 6 -20 5 -31 30 -17 39 6 3 16 1 22
-5 7 -7 14 -7 24 1 19 15 36 -3 31 -33 -3 -22 -7 -24 -58 -21 -30 2 -71 7 -90
13 -55 14 -70 9 -20 -8 65 -21 229 -29 284 -13 80 22 156 104 156 167 -1 65
-45 86 -185 90 -88 2 -122 -1 -168 -16z m150 -53 c24 -22 31 -58 12 -58 -6 0
-25 8 -42 18 -18 9 -34 18 -35 19 -2 1 -1 11 3 22 8 27 33 27 62 -1z m132 -3
c35 -18 39 -40 16 -85 -16 -31 -81 -74 -130 -86 l-30 -7 28 32 c35 42 37 105
5 146 l-22 28 51 -6 c29 -3 66 -13 82 -22z"/>
<path d="M1640 2436 c0 -2 7 -9 15 -16 9 -7 15 -8 15 -2 0 5 -7 12 -15 16 -8
3 -15 4 -15 2z"/>
<path d="M1873 1678 c-36 -17 -27 -23 29 -19 47 3 50 4 33 17 -22 16 -32 17
-62 2z"/>
<path d="M2055 1676 c-16 -12 -12 -13 38 -12 44 0 54 3 45 13 -14 17 -59 17
-83 -1z"/>
<path d="M1785 1580 c-33 -10 -92 -31 -130 -47 -39 -16 -86 -33 -105 -36 -44
-9 -140 15 -197 49 -23 13 -45 24 -48 24 -11 0 5 -70 27 -117 11 -24 40 -66
64 -92 129 -143 337 -171 535 -70 69 34 81 35 123 10 17 -11 67 -32 111 -46
68 -23 93 -27 160 -23 143 7 269 86 333 205 30 58 53 139 36 131 -5 -2 -36
-17 -69 -33 -52 -26 -71 -30 -145 -30 -78 1 -94 4 -190 45 l-105 44 -170 2
c-135 1 -182 -2 -230 -16z"/>
<path d="M3285 2404 c-17 -13 -23 -23 -15 -22 12 2 16 -13 20 -77 l5 -80 18
57 c18 59 22 115 9 135 -6 9 -16 5 -37 -13z"/>
<path d="M3233 2348 c-15 -20 -25 -38 -20 -38 3 0 12 11 21 25 17 26 16 35 -1
13z"/>
<path d="M3185 2269 c-4 -6 -5 -12 -2 -15 2 -3 7 2 10 11 7 17 1 20 -8 4z"/>
<path d="M3137 2159 c-28 -60 -37 -92 -37 -132 0 -33 -6 -61 -17 -76 -29 -42
6 -11 48 42 41 51 41 51 34 116 -4 40 -2 77 5 95 22 58 3 33 -33 -45z"/>
<path d="M3045 1889 c-4 -6 -5 -12 -2 -15 2 -3 7 2 10 11 7 17 1 20 -8 4z"/>
<path d="M671 2363 c0 -32 8 -80 18 -106 l17 -48 -1 103 c0 90 -2 103 -17 106
-16 3 -18 -4 -17 -55z"/>
<path d="M940 1895 c0 -5 5 -17 10 -25 5 -8 10 -10 10 -5 0 6 -5 17 -10 25 -5
8 -10 11 -10 5z"/>
<path d="M1332 640 c-28 -34 -46 -44 -120 -66 -48 -15 -141 -47 -207 -71 -155
-58 -462 -145 -590 -168 -85 -15 -114 -25 -195 -71 l-94 -54 -54 -103 -54
-102 758 -3 c416 -1 759 0 761 2 2 2 -12 53 -32 114 -45 139 -71 258 -85 392
-11 100 -30 170 -47 170 -4 0 -23 -18 -41 -40z"/>
<path d="M2606 645 c-8 -19 -20 -81 -26 -138 -14 -131 -40 -251 -85 -389 -20
-61 -34 -112 -32 -114 2 -2 345 -3 761 -2 l758 3 -54 102 -54 103 -94 54 c-81
45 -110 56 -195 71 -135 24 -404 101 -616 175 -96 34 -194 69 -219 77 -25 9
-62 33 -82 55 -21 21 -40 38 -42 38 -3 0 -12 -16 -20 -35z"/>
<path d="M1922 291 c-41 -33 -93 -89 -134 -147 -4 -6 16 -28 52 -55 48 -35 59
-49 56 -66 -3 -23 -1 -23 94 -23 95 0 97 0 94 22 -3 18 6 31 41 56 25 18 52
44 61 57 16 24 15 27 -21 71 -50 60 -136 124 -168 124 -14 0 -46 -17 -75 -39z"/>
</g>
</svg>
